<svg width="184" height="62" viewBox="0 0 184 62" fill="none" xmlns="http://www.w3.org/2000/svg">
<path d="M121 52C132.046 52 141 43.0457 141 32C141 20.9543 132.046 12 121 12C109.954 12 101 20.9543 101 32C101 43.0457 109.954 52 121 52Z" stroke="#068FC9" stroke-width="6" stroke-linecap="round" stroke-linejoin="round"/>
<path d="M129 24H117C115.939 24 114.922 24.4214 114.172 25.1716C113.421 25.9217 113 26.9391 113 28C113 29.0609 113.421 30.0783 114.172 30.8284C114.922 31.5786 115.939 32 117 32H125C126.061 32 127.078 32.4214 127.828 33.1716C128.579 33.9217 129 34.9391 129 36C129 37.0609 128.579 38.0783 127.828 38.8284C127.078 39.5786 126.061 40 125 40H113" stroke="#00072F" stroke-width="3" stroke-linecap="square" stroke-linejoin="round"/>
<path d="M121 44V20" stroke="#00072F" stroke-width="3" stroke-linecap="square" stroke-linejoin="round"/>
<path d="M24 48.048C21.984 47.92 19.968 47.568 17.952 46.992C15.968 46.416 14.144 45.52 12.48 44.304C10.848 43.056 9.52 41.44 8.496 39.456C7.504 37.44 7.008 34.96 7.008 32.016V19.728H2.4V14.4H22.56V19.728H12.576V31.968C12.576 34.016 12.896 35.728 13.536 37.104C14.208 38.448 15.088 39.52 16.176 40.32C17.296 41.12 18.528 41.712 19.872 42.096C21.248 42.48 22.624 42.72 24 42.816V48.048ZM32.5215 22.32V31.872C32.5215 34.304 32.8255 36.272 33.4335 37.776C34.0415 39.248 34.8575 40.368 35.8815 41.136C36.9375 41.904 38.1375 42.432 39.4815 42.72C40.8575 42.976 42.2975 43.104 43.8015 43.104V22.32H49.1775V48H43.9935C41.8175 48 39.7055 47.776 37.6575 47.328C35.6415 46.88 33.8175 46.08 32.1855 44.928C30.5855 43.776 29.3055 42.144 28.3455 40.032C27.4175 37.92 26.9535 35.216 26.9535 31.92V22.32H32.5215ZM55.8109 48V35.76C55.8109 32.976 56.2749 30.704 57.2029 28.944C58.1629 27.184 59.4269 25.824 60.9949 24.864C62.5629 23.872 64.2909 23.168 66.1789 22.752C68.0989 22.304 70.0029 22.016 71.8909 21.888V26.832C70.5789 26.928 69.2829 27.104 68.0029 27.36C66.7229 27.584 65.5549 27.984 64.4989 28.56C63.4749 29.136 62.6429 30 62.0029 31.152C61.3949 32.304 61.0909 33.856 61.0909 35.808V48H55.8109ZM94.6838 48.096H91.1318C89.2758 48.064 87.4038 47.856 85.5157 47.472C83.6278 47.088 81.9158 46.416 80.3798 45.456C78.8438 44.464 77.5958 43.088 76.6358 41.328C75.7078 39.568 75.2438 37.312 75.2438 34.56V22.32H94.6358V27.216H80.5238V34.512C80.5238 36.432 80.8758 37.968 81.5798 39.12C82.3158 40.24 83.2438 41.088 84.3638 41.664C85.4838 42.208 86.6678 42.592 87.9158 42.816C89.1638 43.008 90.3158 43.12 91.3718 43.152H94.6838V48.096ZM147.783 17.04V11.808H153.015V17.04H147.783ZM147.735 48V22.32H153.111V48H147.735ZM159.733 48V22.32H164.917C167.093 22.32 169.189 22.544 171.205 22.992C173.253 23.44 175.077 24.24 176.677 25.392C178.309 26.544 179.589 28.176 180.517 30.288C181.477 32.368 181.957 35.072 181.957 38.4V48H176.389V38.448C176.389 35.888 176.085 33.872 175.477 32.4C174.869 30.896 174.037 29.776 172.981 29.04C171.957 28.272 170.757 27.776 169.381 27.552C168.037 27.328 166.613 27.216 165.109 27.216V48H159.733Z" fill="#00072F"/>
</svg>
